<svg width="75" height="36" viewBox="0 0 75 36" fill="none" xmlns="http://www.w3.org/2000/svg">
<path d="M69.311 3.6001C71.0661 3.60031 72.4895 5.02376 72.4897 6.77881V29.2212C72.4897 30.9215 71.1542 32.3106 69.4751 32.396L69.311 32.3999H5.39697L5.23291 32.396C3.55362 32.3108 2.21826 30.9217 2.21826 29.2212V6.77881C2.21847 5.07853 3.55376 3.6892 5.23291 3.604L5.39697 3.6001H69.311ZM5.39697 5.3999C4.63586 5.3999 4.01828 6.01774 4.01807 6.77881V29.2212C4.01807 29.9824 4.63572 30.6001 5.39697 30.6001H69.311C70.0721 30.5999 70.6899 29.9823 70.6899 29.2212V6.77881C70.6897 6.01787 70.072 5.40011 69.311 5.3999H5.39697ZM27.8335 9.15674C28.9235 9.15674 29.9141 9.34998 30.8052 9.73682C31.6963 10.1237 32.4644 10.6843 33.1089 11.4185C33.7612 12.1447 34.2627 13.025 34.6128 14.0591C34.9708 15.0931 35.1499 16.2654 35.1499 17.5757V18.4644C35.1499 19.7668 34.9745 20.939 34.6245 21.981C34.2745 23.0151 33.7767 23.8953 33.1323 24.6216C32.488 25.3478 31.7205 25.9047 30.8296 26.2915C29.9385 26.6783 28.947 26.8716 27.8569 26.8716C26.7831 26.8715 25.7968 26.6782 24.8979 26.2915C24.0068 25.9047 23.2349 25.3479 22.5825 24.6216C21.9301 23.8953 21.4249 23.0151 21.0669 21.981C20.7089 20.9389 20.5298 19.7668 20.5298 18.4644V17.5757C20.5298 16.2653 20.7089 15.0932 21.0669 14.0591C21.4249 13.0251 21.9255 12.1447 22.5698 11.4185C23.2143 10.6843 23.9825 10.1237 24.8735 9.73682C25.7726 9.34998 26.7594 9.15674 27.8335 9.15674ZM44.5425 9.14502C45.9585 9.14507 47.1557 9.4053 48.1343 9.92627C49.1129 10.4394 49.8725 11.1464 50.4136 12.0464C50.9545 12.9463 51.2817 13.9806 51.3931 15.1489H48.1108C48.0472 14.4227 47.8879 13.8065 47.6333 13.3013C47.3867 12.796 47.0124 12.4134 46.5112 12.1528C46.018 11.8845 45.3618 11.7496 44.5425 11.7495C43.906 11.7495 43.3442 11.8681 42.8589 12.105C42.3817 12.3418 41.9837 12.6969 41.6655 13.1704C41.3473 13.6362 41.1088 14.2208 40.9497 14.9233C40.7906 15.6181 40.7114 16.4236 40.7114 17.3394V18.6772C40.7114 19.5535 40.7831 20.339 40.9263 21.0337C41.0695 21.7284 41.2919 22.3168 41.5942 22.7983C41.8966 23.2799 42.2868 23.6473 42.7642 23.8999C43.2414 24.1524 43.8101 24.2788 44.4702 24.2788C45.2738 24.2788 45.927 24.1525 46.4282 23.8999C46.9373 23.6473 47.3229 23.276 47.5854 22.7866C47.8559 22.2973 48.0265 21.6895 48.0981 20.9634H51.3804C51.2928 22.1158 50.9704 23.1378 50.4136 24.0298C49.8566 24.914 49.081 25.6085 48.0864 26.1138C47.0919 26.619 45.8864 26.8716 44.4702 26.8716C43.3803 26.8716 42.3981 26.6821 41.5229 26.3032C40.6557 25.9164 39.9111 25.3682 39.2905 24.6577C38.6779 23.9393 38.2085 23.0783 37.8823 22.0757C37.5562 21.0653 37.3931 19.9323 37.3931 18.6772V17.3628C37.3931 16.1077 37.5599 14.9748 37.894 13.9644C38.2282 12.9538 38.7061 12.0928 39.3267 11.3823C39.9552 10.664 40.7074 10.1119 41.5825 9.7251C42.4657 9.3383 43.4525 9.14502 44.5425 9.14502ZM19.5151 11.9634H11.5669V26.6353H8.29639V9.39307H19.5151V11.9634ZM66.4185 11.9634H61.0239V26.6353H57.7534V11.9634H52.4194V9.39307H66.4185V11.9634ZM27.8335 11.7856C27.1971 11.7856 26.6324 11.912 26.1392 12.1646C25.6538 12.4093 25.2401 12.7766 24.8979 13.2661C24.5559 13.7556 24.2928 14.3593 24.1099 15.0776C23.9349 15.7881 23.8472 16.6129 23.8472 17.5522V18.4644C23.8472 19.3958 23.9349 20.2206 24.1099 20.939C24.2929 21.6574 24.5558 22.2658 24.8979 22.7632C25.248 23.2525 25.6694 23.6239 26.1626 23.8765C26.6558 24.129 27.2207 24.2553 27.8569 24.2554C28.4934 24.2554 29.059 24.1291 29.5522 23.8765C30.0455 23.6239 30.4593 23.2526 30.7935 22.7632C31.1356 22.2658 31.3938 21.6574 31.5688 20.939C31.7439 20.2206 31.8315 19.3958 31.8315 18.4644V17.5522C31.8315 16.6129 31.7439 15.7881 31.5688 15.0776C31.3939 14.3594 31.1354 13.7555 30.7935 13.2661C30.4513 12.7766 30.0291 12.4093 29.5278 12.1646C29.0266 11.912 28.462 11.7856 27.8335 11.7856Z" fill="white"></path>
</svg>