<svg width="40" height="36" viewBox="0 0 40 36" fill="none" xmlns="http://www.w3.org/2000/svg">
<path d="M15.5876 3.6001L13.2621 5.58979H4.03205V17.2647H11.5647L11.6668 16.4346C12.5407 9.32184 18.5508 3.6001 25.746 3.6001C30.8219 3.6001 35.2919 6.33045 37.8008 10.4252H35.238C33.0246 7.57938 29.59 5.73964 25.746 5.73964C19.0847 5.73964 13.6578 11.2473 13.6578 18.0015C13.6578 24.7532 19.0849 30.2607 25.746 30.2607C29.4616 30.2607 32.7866 28.5474 35.005 25.8651H37.6205C35.0798 29.7998 30.6987 32.4001 25.746 32.4001C18.6625 32.4001 11.9855 26.1923 11.5647 19.0472H4.03205V30.7222L1.80078 32.4001L1.80078 3.6001H15.5876ZM25.746 9.51038C28.9285 9.51038 31.7102 11.333 33.1243 14.0094H30.6109C29.4635 12.5728 27.7101 11.6499 25.746 11.6499C22.2904 11.6499 19.483 14.5059 19.483 18.0015C19.483 21.4948 22.2908 24.3504 25.746 24.3504C27.6258 24.3504 29.3152 23.5034 30.4617 22.1731H33.0265C31.5853 24.7503 28.8568 26.4924 25.746 26.4924C21.1418 26.4924 17.3802 22.678 17.3801 18.0015C17.3801 13.325 21.1418 9.51038 25.746 9.51038Z" fill="white"></path>
</svg>