<svg width="34" height="36" viewBox="0 0 34 36" fill="none" xmlns="http://www.w3.org/2000/svg">
<path d="M3.49782 29.7808C3.93749 29.7808 4.29465 29.9038 4.56924 30.1499C4.73268 30.2953 4.85531 30.5042 4.93704 30.7766L4.21862 30.9391C4.17612 30.7627 4.08711 30.6234 3.95145 30.5212C3.81743 30.4191 3.65396 30.3681 3.46111 30.3681C3.19469 30.3681 2.97808 30.4586 2.81136 30.6396C2.64629 30.8207 2.56375 31.114 2.56375 31.5194C2.56375 31.9496 2.64554 32.2561 2.80898 32.4387C2.97241 32.6212 3.18485 32.7125 3.44632 32.7125C3.63918 32.7125 3.80513 32.6545 3.94406 32.5385C4.08298 32.4224 4.18271 32.2398 4.24318 31.9907L4.94681 32.2019C4.83894 32.5733 4.65917 32.8495 4.40747 33.0306C4.15739 33.2101 3.83945 33.2998 3.45371 33.2998C2.97646 33.2998 2.58418 33.1459 2.27691 32.8379C1.96963 32.5284 1.81601 32.1059 1.81601 31.5704C1.81602 31.0041 1.97051 30.5646 2.27941 30.252C2.58832 29.9379 2.99443 29.7808 3.49782 29.7808Z" fill="white"></path>
<path fill-rule="evenodd" clip-rule="evenodd" d="M7.16308 29.7808C7.69265 29.7808 8.11604 29.9364 8.43312 30.2474C8.75182 30.5584 8.91118 30.9909 8.91119 31.5449C8.91119 32.0943 8.75346 32.5245 8.43801 32.8355C8.12256 33.145 7.7009 33.2998 7.17298 33.2998C6.63852 33.2998 6.21351 33.1459 5.89805 32.8379C5.5826 32.5284 5.42488 32.1028 5.42488 31.5612C5.42488 31.2145 5.47966 30.9236 5.58916 30.6884C5.67088 30.5151 5.78205 30.3595 5.92262 30.2218C6.0648 30.0841 6.22007 29.982 6.3884 29.9154C6.61231 29.8257 6.87054 29.7808 7.16308 29.7808ZM7.17048 30.3681C6.87139 30.3681 6.63035 30.4656 6.4473 30.6605C6.26424 30.854 6.17261 31.1465 6.17261 31.538C6.17262 31.9233 6.26662 32.2158 6.45457 32.4154C6.64253 32.6135 6.88118 32.7125 7.17048 32.7125C7.45976 32.7125 7.69681 32.6143 7.8815 32.4178C8.06783 32.2197 8.16094 31.9233 8.16094 31.5287C8.16094 31.1387 8.07029 30.8478 7.88889 30.6559C7.7091 30.464 7.46958 30.3681 7.17048 30.3681Z" fill="white"></path>
<path d="M11.2084 32.1601L11.8533 29.8388H12.9417V33.2418H12.2676V30.563L11.5541 33.2418H10.8554L10.1444 30.563V33.2418H9.47021V29.8388H10.5563L11.2084 32.1601Z" fill="white"></path>
<path fill-rule="evenodd" clip-rule="evenodd" d="M14.8272 29.8388C15.2684 29.8388 15.556 29.8559 15.6901 29.8899C15.896 29.941 16.0686 30.0524 16.2075 30.2241C16.3464 30.3944 16.4159 30.6149 16.4159 30.8857C16.4159 31.0946 16.3758 31.2703 16.2957 31.4126C16.2156 31.555 16.1134 31.6672 15.9892 31.7492C15.8666 31.8297 15.7416 31.8831 15.6141 31.9094C15.4409 31.9419 15.19 31.9582 14.8615 31.9582H14.3883V33.2418H13.6625V29.8388H14.8272ZM14.3883 31.3801H14.7854C15.0715 31.3801 15.2627 31.3623 15.3591 31.3267C15.4555 31.2911 15.5308 31.2355 15.5847 31.1597C15.6403 31.0838 15.668 30.9956 15.668 30.895C15.668 30.7712 15.6297 30.6691 15.5529 30.5886C15.4761 30.5082 15.3788 30.4578 15.2611 30.4377C15.1745 30.4222 15.0003 30.4145 14.7388 30.4145H14.3883V31.3801Z" fill="white"></path>
<path d="M17.7569 32.6685H19.5613V33.2418H17.0312V29.8667H17.7569V32.6685Z" fill="white"></path>
<path d="M20.7848 33.2418H20.0591V29.8388H20.7848V33.2418Z" fill="white"></path>
<path fill-rule="evenodd" clip-rule="evenodd" d="M24.7197 33.2418H23.9302L23.6165 32.4688H22.1797L21.8831 33.2418H21.1132L22.5132 29.8388H23.2806L24.7197 33.2418ZM22.4028 31.8955H23.3835L22.8883 30.6326L22.4028 31.8955Z" fill="white"></path>
<path d="M27.2915 32.1113V29.8388H27.9658V33.2418H27.2376L25.7886 31.0226V33.2418H25.1144V29.8388H25.8206L27.2915 32.1113Z" fill="white"></path>
<path d="M31.3344 30.4145H30.2704V33.2418H29.5446V30.4145H28.4782V29.8388H31.3344V30.4145Z" fill="white"></path>
<path d="M28.1315 20.8997C29.1571 20.8997 29.9282 21.1126 30.4447 21.5383C30.965 21.9641 31.2381 22.5323 31.2641 23.243L29.6141 23.3116C29.5435 22.914 29.3912 22.629 29.1571 22.4566C28.9267 22.2807 28.5792 22.1928 28.1147 22.1928C27.6353 22.1928 27.26 22.286 26.9887 22.4724C26.8141 22.592 26.7267 22.7522 26.7267 22.9527C26.7267 23.1356 26.8085 23.2922 26.9719 23.4224C27.18 23.5878 27.6855 23.7603 28.4882 23.9397C29.2909 24.1192 29.8836 24.3056 30.2664 24.4991C30.6529 24.6891 30.9539 24.9513 31.1694 25.2855C31.3887 25.6163 31.4983 26.0262 31.4983 26.5153C31.4983 26.9586 31.3682 27.3738 31.1081 27.7608C30.848 28.1478 30.48 28.4363 30.0044 28.6263C29.5287 28.8128 28.936 28.9061 28.2262 28.9061C27.1931 28.9061 26.3997 28.6809 25.846 28.2305C25.2923 27.7767 24.9616 27.1168 24.8538 26.2513L26.4592 26.1036C26.5558 26.6138 26.7509 26.9885 27.0445 27.2277C27.3418 27.467 27.7413 27.5866 28.243 27.5866C28.7743 27.5866 29.1738 27.4811 29.4413 27.27C29.7126 27.0554 29.8484 26.8055 29.8484 26.5205C29.8484 26.3376 29.7907 26.1828 29.6755 26.0561C29.5641 25.9259 29.367 25.8133 29.0846 25.7183C28.8913 25.655 28.451 25.5424 27.7635 25.3805C26.8791 25.173 26.2584 24.9179 25.9016 24.6153C25.4 24.1895 25.1491 23.6705 25.1491 23.0583C25.1491 22.6642 25.2663 22.2965 25.5004 21.9552C25.7382 21.6104 26.0782 21.3483 26.5204 21.1689C26.9664 20.9894 27.5034 20.8997 28.1315 20.8997Z" fill="white"></path>
<path fill-rule="evenodd" clip-rule="evenodd" d="M12.7184 23.0372C13.614 23.0372 14.348 23.3134 14.9203 23.8658C15.4926 24.4147 15.7788 25.1096 15.7788 25.9505C15.7788 26.7985 15.4889 27.5021 14.9091 28.0616C14.3331 28.6175 13.6066 28.8956 12.7296 28.8956C12.187 28.8955 11.6686 28.7794 11.1743 28.5472C10.6838 28.315 10.3103 27.9754 10.0539 27.5285C9.79751 27.0782 9.66933 26.531 9.66933 25.8872C9.66933 25.3946 9.79749 24.9178 10.0539 24.4569C10.3103 23.996 10.6728 23.6441 11.141 23.4013C11.6129 23.1586 12.1387 23.0372 12.7184 23.0372ZM12.7241 24.2458C12.3153 24.2458 11.9715 24.3935 11.6927 24.6891C11.414 24.9846 11.2747 25.4104 11.2747 25.9663C11.2747 26.5222 11.4141 26.948 11.6927 27.2435C11.9715 27.5391 12.3153 27.6869 12.7241 27.6869C13.1328 27.6869 13.4748 27.5391 13.7497 27.2435C14.0284 26.948 14.1678 26.5187 14.1678 25.9557C14.1678 25.4069 14.0285 24.9846 13.7497 24.6891C13.4748 24.3935 13.1328 24.2458 12.7241 24.2458Z" fill="white"></path>
<path fill-rule="evenodd" clip-rule="evenodd" d="M5.27124 21.0316C6.1445 21.0316 6.77807 21.102 7.17198 21.2428C7.5696 21.38 7.88739 21.6262 8.12523 21.9816C8.36307 22.337 8.48199 22.7434 8.48199 23.2008C8.48199 23.7813 8.30174 24.2616 7.94127 24.6416C7.5808 25.0181 7.04196 25.2556 6.32474 25.3541C6.6815 25.5511 6.97503 25.7676 7.20544 26.0033C7.43956 26.2391 7.75362 26.6578 8.14753 27.2594L9.14527 28.7688H7.17198L5.97913 27.0853C5.55548 26.4836 5.26555 26.1053 5.10946 25.9505C4.95339 25.7922 4.78801 25.6848 4.61335 25.6285C4.43869 25.5687 4.16179 25.5388 3.78278 25.5388H3.44833V28.7688H1.79834V21.0316H5.27124ZM3.44833 24.3038H4.66912C5.46067 24.3038 5.95498 24.2721 6.15194 24.2088C6.34888 24.1455 6.50311 24.0364 6.61459 23.8816C6.72606 23.7268 6.78188 23.5332 6.78188 23.301C6.78188 23.0407 6.70746 22.8314 6.55883 22.6731C6.41391 22.5112 6.20769 22.4092 5.94016 22.3669C5.80638 22.3494 5.40495 22.3405 4.73603 22.3405H3.44833V24.3038Z" fill="white"></path>
<path d="M18.6774 24.0769H21.9105V21.0316H23.5604V28.7688H21.9105V25.3858H18.6774V28.7688H17.0274V21.0316H18.6774V24.0769Z" fill="white"></path>
<path d="M25.1258 1.86815C25.2877 1.71985 25.5555 1.82885 25.5555 2.04208V9.06366C25.5555 9.14425 25.5147 9.21879 25.4449 9.26488C24.7879 9.69854 21.3623 12.0198 19.3962 14.5383C17.5604 16.8899 15.1794 20.3599 14.4709 21.4006C14.3717 21.5462 14.1485 21.5511 14.0422 21.4099C13.5144 20.7088 12.1439 18.9241 11.0554 17.8185C9.9489 16.6947 8.13744 15.2608 7.46646 14.7393C7.33531 14.6374 7.3422 14.4456 7.48 14.3518L11.5317 11.5963C11.6547 11.5126 11.8271 11.5475 11.9033 11.6714L14.0294 15.1295C14.1311 15.2948 14.3846 15.2922 14.4799 15.1236C15.1355 13.9638 17.1592 10.4599 18.8829 8.28143C20.7042 5.97972 23.9603 2.93619 25.1258 1.86815Z" fill="white"></path>
</svg>