<svg width="34" height="36" viewBox="0 0 34 36" fill="none" xmlns="http://www.w3.org/2000/svg">
<path d="M15.2998 4.5C11.7194 4.5 8.2856 5.96973 5.75386 8.58586C3.22212 11.202 1.7998 14.7502 1.7998 18.45C1.7998 22.1498 3.22212 25.698 5.75386 28.3141C8.2856 30.9303 11.7194 32.4 15.2998 32.4V28.215C12.7935 28.215 10.3899 27.1862 8.61765 25.3549C6.84543 23.5236 5.8498 21.0398 5.8498 18.45C5.8498 15.8602 6.84543 13.3764 8.61765 11.5451C10.3899 9.71381 12.7935 8.685 15.2998 8.685V4.5Z" fill="white"></path>
<path d="M31.5 4.5C27.9196 4.5 24.4858 5.96973 21.9541 8.58586C19.4223 11.202 18 14.7502 18 18.45C18 22.1498 19.4223 25.698 21.9541 28.3141C24.4858 30.9303 27.9196 32.4 31.5 32.4V28.215C29.3455 28.215 27.2557 27.4542 25.5769 26.0588C23.8981 24.6634 22.7312 22.7171 22.2695 20.5425H27.45V16.3575H22.2695C22.7312 14.1829 23.8981 12.2366 25.5769 10.8412C27.2557 9.44575 29.3455 8.685 31.5 8.685V4.5Z" fill="white"></path>
</svg>